M48
; DRILL file {KiCad 6.0.6-3a73a75311~116~ubuntu20.04.1} date Thu 14 Jul 2022 10:37:35 AM PDT
; FORMAT={-:-/ absolute / inch / decimal}
; #@! TF.CreationDate,2022-07-14T10:37:35-07:00
; #@! TF.GenerationSoftware,Kicad,Pcbnew,6.0.6-3a73a75311~116~ubuntu20.04.1
; #@! TF.FileFunction,MixedPlating,1,2
FMAT,2
INCH
; #@! TA.AperFunction,Plated,PTH,ComponentDrill
T1C0.0315
; #@! TA.AperFunction,Plated,PTH,ComponentDrill
T2C0.0354
; #@! TA.AperFunction,Plated,PTH,ComponentDrill
T3C0.0591
%
G90
G05
T1
X5.4094Y-2.6937
X5.4094Y-2.9937
X5.6063Y-2.6937
X5.6063Y-2.9937
X5.8031Y-2.6937
X5.8031Y-2.9937
X6.0Y-2.6937
X6.0Y-2.9937
X6.1969Y-2.6937
X6.1969Y-2.9937
X6.3937Y-2.6937
X6.3937Y-2.9937
T2
X5.4094Y-2.2
X5.4094Y-2.3
X5.6063Y-2.2
X5.6063Y-2.3
X5.8031Y-2.2
X5.8031Y-2.3
X6.0Y-2.2
X6.0Y-2.3
X6.1969Y-2.2
X6.1969Y-2.3
X6.3937Y-2.2
X6.3937Y-2.3
T3
X4.7Y-2.2176
X4.7Y-3.0243
T0
M30
